Coordinates
version=1
nRows=14
nColumns=33
inDegrees=yes

Units are S.I. units (second, meters, Newtons, ...)
Angles are in degrees.

endheader
time	ground_thorax_rot_x	ground_thorax_rot_y	ground_thorax_rot_z	ground_thorax_tx	ground_thorax_ty	ground_thorax_tz	clav_prot_r	clav_elev_r	scapula_abduction_r	scapula_elevation_r	scapula_upward_rot_r	scapula_winging_r	shoulder_elv_r	plane_of_elev_r	axial_rot_r	elbow_flexion_r	pro_sup_r	wrist_flex_r	wrist_dev_r	clav_prot_l	clav_elev_l	scapula_abduction_l	scapula_elevation_l	scapula_upward_rot_l	scapula_winging_l	shoulder_elv_l	plane_of_elev_l	axial_rot_l	elbow_flexion_l	pro_sup_l	wrist_flex_l	wrist_dev_l	
7.6200	-40.319420	-9.758457	5.255679	-219.092397	862.845121	-8.666706	10.055610	-45.000000	34.157862	-45.000000	-44.999982	2059.862376	-2990.216060	150.466841	-91.637288	732.927920	33.713597	18.959143	7.418336	14.800084	38.079324	-35.707575	-45.000000	-45.000000	444.638359	-2448.701730	19.360971	-45.244592	1091.792744	42.130933	7.737475	-22.997762	
7.6300	-40.269901	-9.521662	5.197985	-219.528450	864.336783	-8.578644	10.075482	-45.000000	34.190654	-45.000000	-44.999968	2059.790173	-2990.152945	150.334459	-92.028342	733.066340	34.803533	18.877030	7.281526	14.832862	38.119143	-35.781110	-45.000000	-45.000000	444.805861	-2448.666513	19.337248	-45.626599	1091.845970	41.899450	7.717083	-23.038396	
7.6400	-40.228952	-9.281361	5.136896	-219.898150	865.781657	-8.489614	10.081345	-45.000000	34.211906	-45.000000	-44.999942	2059.733262	-2990.091791	150.209013	-92.448252	733.205308	35.856378	18.783268	7.150494	14.867319	38.209233	-35.887752	-45.000000	-45.000000	445.006961	-2448.650770	19.330112	-46.046030	1091.895802	41.688556	7.709228	-23.104810	
7.6500	-40.174950	-9.097027	5.110455	-220.123573	867.124096	-8.397059	10.114417	-45.000000	34.262848	-45.000000	-44.999896	2059.678598	-2990.019542	150.088711	-92.785643	733.333871	36.832668	18.719645	7.019713	14.885488	38.225882	-35.938206	-45.000000	-45.000000	445.132416	-2448.615304	19.302381	-46.324809	1091.935444	41.513411	7.694949	-23.130963	
7.6600	-40.119675	-8.955797	5.113841	-220.198635	868.361498	-8.301193	10.153964	-45.000000	34.325635	-45.000000	-44.999814	2059.636483	-2989.936220	149.985256	-93.078759	733.456479	37.744315	18.679865	6.899197	14.900065	38.213689	-35.963428	-45.000000	-45.000000	445.224285	-2448.569814	19.265864	-46.531661	1091.972525	41.372862	7.674356	-23.135559	
7.6700	-40.067904	-8.840919	5.132284	-220.108839	869.485517	-8.201167	10.201584	-45.000000	34.397004	-45.000000	-44.999667	2059.601913	-2989.854137	149.883680	-93.336286	733.573256	38.595128	18.644933	6.776994	14.905096	38.192452	-35.987416	-45.000000	-44.999999	445.295827	-2448.523825	19.231175	-46.677637	1092.008150	41.270864	7.654965	-23.134115	
7.6800	-40.024366	-8.761466	5.175135	-219.861113	870.503739	-8.096006	10.242284	-45.000000	34.470346	-45.000000	-44.999403	2059.588334	-2989.758547	149.803517	-93.563595	733.692949	39.407377	18.636726	6.671970	14.916711	38.162033	-36.001313	-45.000000	-44.999999	445.354366	-2448.468062	19.197482	-46.782987	1092.047609	41.204507	7.626290	-23.119218	
7.6900	-39.994969	-8.680050	5.213251	-219.473095	871.431462	-7.984259	10.279043	-45.000000	34.537432	-45.000000	-44.998930	2059.580840	-2989.675269	149.714802	-93.784467	733.812952	40.199563	18.614038	6.558148	14.922145	38.154429	-36.048697	-45.000000	-44.999998	445.420093	-2448.420678	19.178900	-46.876455	1092.090306	41.176897	7.600995	-23.117767	
7.7000	-39.979687	-8.627938	5.268699	-218.963857	872.285022	-7.863718	10.296713	-45.000000	34.594862	-45.000000	-44.998084	2059.605590	-2989.568114	149.650858	-93.974678	733.948486	40.993809	18.629367	6.470197	14.942628	38.142751	-36.083699	-45.000000	-44.999996	445.478251	-2448.359117	19.170781	-46.939875	1092.135695	41.189595	7.564885	-23.106260	
7.7100	-39.980810	-8.573338	5.315869	-218.352637	873.080817	-7.732504	10.311352	-45.000000	34.655464	-45.000000	-44.996567	2059.627687	-2989.477085	149.575430	-94.153383	734.091931	41.799646	18.627117	6.367573	14.948306	38.144052	-36.138344	-45.000000	-44.999993	445.533133	-2448.297319	19.181342	-46.977508	1092.173618	41.254085	7.530595	-23.105282	
7.7200	-39.997272	-8.536635	5.372147	-217.657863	873.834824	-7.589948	10.320039	-45.000000	34.708935	-45.000000	-44.993854	2059.670409	-2989.370835	149.514495	-94.306758	734.247559	42.630283	18.651759	6.281980	14.955676	38.136330	-36.178583	-45.000000	-44.999988	445.567563	-2448.209449	19.198220	-46.986302	1092.209259	41.375800	7.490614	-23.101152	
7.7300	-40.028587	-8.490293	5.413970	-216.895305	874.561987	-7.437809	10.339435	-45.000000	34.780068	-45.000000	-44.988980	2059.690025	-2989.294937	149.431273	-94.457522	734.402304	43.490696	18.640131	6.169037	14.931210	38.133865	-36.237357	-45.000000	-44.999979	445.590098	-2448.115320	19.225584	-46.969188	1092.238247	41.562241	7.451038	-23.109792	
7.7400	-40.071452	-8.465020	5.459781	-216.077189	875.276866	-7.280046	10.365805	-45.000000	34.859726	-45.000000	-44.980292	2059.721605	-2989.203875	149.358461	-94.596618	734.565250	44.388228	18.652065	6.071209	14.904048	38.122373	-36.274408	-45.000000	-44.999962	445.595565	-2447.995886	19.257538	-46.924436	1092.270040	41.811724	7.405325	-23.119043	
7.7500	-40.122702	-8.438703	5.491144	-215.210893	875.994047	-7.122762	10.405117	-45.000000	34.973220	-45.000000	-44.964605	2059.727026	-2989.135612	149.266994	-94.751001	734.727671	45.324163	18.632488	5.951167	14.847067	38.112597	-36.323309	-45.000000	-44.999931	445.599623	-2447.875771	19.298197	-46.848842	1092.301382	42.122516	7.351888	-23.135560	
